<svg width="25" height="25" viewBox="0 0 64 64" fill="none" xmlns="http://www.w3.org/2000/svg">
<path d="M61.0598 2.94023C60.863 2.74457 60.6158 2.60734 60.3457 2.54378C60.0756 2.48023 59.7932 2.49284 59.5298 2.58023L3.52979 21.2402C3.25112 21.3378 3.00743 21.5154 2.82926 21.7508C2.6511 21.9863 2.54638 22.2691 2.52823 22.5638C2.51008 22.8585 2.5793 23.152 2.72722 23.4075C2.87515 23.663 3.0952 23.8692 3.35979 24.0002L28.2098 35.7902L39.9998 60.6402C40.1314 60.9071 40.3389 61.1292 40.5962 61.2785C40.8536 61.4279 41.1493 61.4979 41.4463 61.4797C41.7433 61.4616 42.0283 61.3561 42.2656 61.1765C42.5028 60.9969 42.6817 60.7512 42.7798 60.4702L61.4398 4.47023C61.5247 4.20506 61.5341 3.9215 61.467 3.65128C61.3999 3.38106 61.2589 3.13486 61.0598 2.94023V2.94023ZM54.4498 7.43023L28.9998 32.8602L7.99979 22.9102L54.4498 7.43023ZM41.0898 56.0002L31.0898 35.0002L56.5698 9.55023L41.0898 56.0002Z" fill="white"/>

</svg>
